PathFileType	4	(X/Y/Z)	C:/Users/opensim2020/Desktop/walking_exp_matlab/subject01_walking07_straight_03.trc	
DataRate	CameraRate	NumFrames	NumMarkers	Units	OrigDataRate	OrigDataStartFrame	OrigNumFrames	
100.00	100.00	8	43	mm	100.00	2063	220	
Frame#	Time	LFHD			RFHD			LBHD			RBHD			C7			T10			CLAV			STRN			RBAK			LSHO			LUPA			LELB			LFRM			LWRA			LWRB			LFIN			RSHO			RUPA			RELB			RFRM			RWRA			RWRB			RFIN			LASI			RASI			LPSI			RPSI			LTHI			LKNE			LTIB			LANK			LHEE			LTOE			RTHI			RKNE			RTIB			RANK			RHEE			RTOE			*39			*40			*41			*42			
		X1	Y1	Z1	X2	Y2	Z2	X3	Y3	Z3	X4	Y4	Z4	X5	Y5	Z5	X6	Y6	Z6	X7	Y7	Z7	X8	Y8	Z8	X9	Y9	Z9	X10	Y10	Z10	X11	Y11	Z11	X12	Y12	Z12	X13	Y13	Z13	X14	Y14	Z14	X15	Y15	Z15	X16	Y16	Z16	X17	Y17	Z17	X18	Y18	Z18	X19	Y19	Z19	X20	Y20	Z20	X21	Y21	Z21	X22	Y22	Z22	X23	Y23	Z23	X24	Y24	Z24	X25	Y25	Z25	X26	Y26	Z26	X27	Y27	Z27	X28	Y28	Z28	X29	Y29	Z29	X30	Y30	Z30	X31	Y31	Z31	X32	Y32	Z32	X33	Y33	Z33	X34	Y34	Z34	X35	Y35	Z35	X36	Y36	Z36	X37	Y37	Z37	X38	Y38	Z38	X39	Y39	Z39	X40	Y40	Z40	X41	Y41	Z41	X42	Y42	Z42	X43	Y43	Z43	

28	0.270	1403.80164	-742.11957	1671.56726	1509.66101	-699.12836	1678.40308	1441.83533	-847.81763	1616.12793	1554.62634	-805.07501	1622.03491	1462.43579	-864.30524	1428.29028	1467.08337	-905.77686	1137.55298	1459.04297	-720.57092	1361.02649	1454.82654	-681.14215	1204.45068	1537.45947	-921.89551	1236.60681	1299.97937	-780.50653	1390.91772	1214.20129	-799.86993	1205.14050	1212.47534	-810.41382	1053.55554	1193.49768	-763.26776	948.08258	1223.09436	-682.70105	838.22186	1191.26733	-731.99371	829.77240	1189.99438	-678.10547	764.46545	1612.01477	-781.23291	1388.91028	1708.86084	-839.31458	1188.41980	1711.98914	-835.39777	1063.10437	1744.91541	-800.12933	947.67999	1730.89185	-709.18903	838.49530	1768.32556	-754.60974	835.57367	1766.82068	-710.66077	761.52319	1361.53418	-734.67181	930.11206	1579.71606	-737.60938	931.12537	1413.45581	-922.45691	940.16486	1558.52295	-921.48010	939.17700	1320.11206	-747.33337	595.91437	1345.28967	-746.28418	462.17969	1345.65454	-795.47461	277.40213	1412.57422	-819.66193	64.53963	1466.77417	-863.52264	36.11295	1402.83154	-672.94403	31.25348	1659.91138	-739.08264	602.68634	1652.13074	-713.87793	448.08206	1652.62305	-861.57037	353.79022	1608.43530	-1012.24414	213.25809	1550.24988	-1066.06934	214.58936	1628.85120	-957.64453	81.98023	1492.08618	-719.71820	1710.69128	-3101.95166	1973.00928	1023.77557	-3140.58984	2012.52454	1022.02515			 
29	0.280	1402.33374	-733.10773	1671.77405	1508.21484	-690.49396	1678.54187	1440.05896	-839.21765	1616.77551	1552.94714	-796.82324	1622.65344	1461.05005	-856.44977	1428.83679	1466.12512	-898.20441	1138.10522	1457.83240	-712.81964	1361.37085	1453.77063	-673.55994	1204.70435	1536.06580	-914.33392	1237.26648	1298.73901	-772.37952	1391.21533	1212.91895	-790.11450	1205.39819	1210.99915	-798.54065	1053.58594	1192.35327	-748.90082	949.08258	1222.37708	-666.11096	841.08435	1190.32556	-715.02179	831.55060	1189.01086	-659.66711	767.65314	1610.74500	-773.80316	1389.46277	1707.31287	-832.86749	1189.02747	1709.96765	-829.55200	1063.68298	1742.88818	-795.95880	947.91364	1729.17126	-706.34735	837.52600	1766.36609	-751.95239	835.22980	1765.29932	-709.03882	760.73560	1360.05139	-727.70490	930.38635	1578.20154	-729.58258	932.21289	1413.46667	-915.07068	940.50269	1558.68457	-913.23584	940.15265	1319.60950	-742.67456	595.55078	1344.98083	-743.18005	461.78864	1345.55994	-793.89081	277.50058	1412.54053	-819.43262	64.56374	1466.22144	-863.85376	36.94130	1402.87988	-672.77472	31.10017	1658.20105	-725.29816	604.65460	1649.74341	-696.87726	450.58597	1650.82202	-842.64990	353.31638	1606.62122	-990.53638	209.62045	1548.79309	-1045.50854	209.15567	1626.80237	-930.99969	81.10259	1490.59265	-710.93549	1710.87305	-3102.07031	1973.17029	1023.44421	-3140.63940	2012.53064	1022.07983			 
30	0.290	1400.83765	-724.20941	1671.89697	1506.89294	-681.84436	1678.65845	1438.38062	-830.59875	1617.43359	1551.41223	-788.53210	1623.31592	1459.59729	-848.72815	1429.32080	1465.19043	-890.55591	1138.53894	1456.76563	-705.08362	1361.72205	1452.69873	-665.94000	1204.98828	1534.76257	-906.71222	1237.87610	1297.61182	-764.34717	1391.59070	1211.62134	-780.45581	1205.69128	1209.62354	-786.79749	1053.64832	1191.20483	-734.76813	950.24176	1221.17249	-649.34290	844.36078	1189.43579	-698.13275	833.57233	1188.08044	-641.31708	771.00403	1609.52258	-766.27563	1389.99890	1705.79663	-826.42236	1189.68945	1708.11243	-823.72797	1064.37317	1740.99939	-791.68414	948.24268	1727.57703	-703.53040	836.63330	1764.44751	-749.40680	834.85889	1763.82568	-707.42542	759.96228	1358.80652	-720.35193	930.63226	1576.71448	-721.58118	933.35529	1413.46362	-907.66272	940.86084	1558.81348	-905.00836	941.01941	1319.45154	-738.10559	595.16290	1344.60205	-740.12079	461.37619	1345.50537	-792.61871	277.63083	1412.57556	-819.09143	64.57475	1466.28015	-863.81067	37.31670	1402.79297	-672.58752	30.96002	1656.57532	-711.76483	606.70923	1647.54407	-680.57910	453.15533	1648.78857	-823.72479	352.03552	1604.74268	-968.68951	205.43193	1547.04846	-1023.97736	202.69896	1624.77576	-903.89886	79.65383	1489.14343	-702.13135	1711.07520	-3101.88062	1973.23291	1023.44421	-3140.73633	2012.55078	1021.92969			 
31	0.300	1399.47998	-715.27197	1672.07214	1505.66785	-673.19598	1678.73914	1436.76038	-821.99939	1618.09155	1549.87024	-780.25537	1623.89514	1458.24207	-840.78076	1429.63123	1464.30701	-882.94891	1139.05737	1455.68225	-697.25885	1362.06433	1451.61377	-658.27936	1205.27979	1533.52209	-899.04205	1238.49597	1296.42737	-756.26263	1391.89429	1210.39441	-770.98895	1205.97900	1208.35510	-775.20819	1053.75232	1190.03064	-720.91089	951.38629	1220.17200	-632.89282	847.71277	1188.57288	-681.53766	835.67175	1187.05774	-623.17749	774.59583	1608.31409	-758.68964	1390.56750	1704.40149	-819.87018	1190.38660	1706.41919	-817.86755	1065.07300	1739.27563	-787.42804	948.60156	1726.09705	-700.75555	835.82434	1762.84937	-746.73706	834.69714	1762.49023	-705.81268	759.31927	1357.50232	-713.50354	930.84631	1575.30383	-713.65674	934.49609	1413.36304	-900.25061	941.12659	1558.82324	-896.90741	941.92328	1319.18945	-733.89166	595.05133	1344.21509	-737.13019	461.06128	1345.17432	-791.45392	277.91232	1412.47412	-819.42377	65.36229	1466.37964	-863.69397	37.84856	1402.68762	-672.55029	30.92048	1654.90771	-698.63312	608.67743	1645.16687	-664.48169	455.61392	1646.68652	-804.82935	350.05008	1602.63928	-946.11700	200.07275	1545.39807	-1001.60504	195.31259	1623.19116	-876.24622	77.31062	1487.77429	-693.22913	1711.22815	-3102.06030	1973.11230	1023.44641	-3140.63037	2012.59302	1022.01038			 
32	0.310	1398.15771	-706.40002	1672.16162	1504.54858	-664.46259	1678.81384	1435.24634	-813.25983	1618.61084	1548.41760	-771.94971	1624.42834	1456.93909	-832.88782	1430.10254	1463.37036	-875.23718	1139.50513	1454.54993	-689.42401	1362.35669	1450.53735	-650.52173	1205.55579	1532.37549	-891.35986	1239.02905	1295.24170	-748.27338	1392.18713	1209.15784	-761.70337	1206.27185	1207.24866	-763.76550	1053.94800	1189.02271	-707.22144	952.64093	1219.37939	-616.83374	851.04852	1187.79736	-665.05682	837.88617	1186.08423	-605.21686	778.35620	1607.20313	-750.96277	1391.06970	1703.06799	-813.25848	1191.06885	1704.93555	-811.98114	1065.88586	1737.69446	-783.10577	949.03809	1724.75793	-697.85577	835.10992	1761.38635	-744.06921	834.59814	1761.17493	-704.18536	758.70227	1356.32959	-706.56531	930.93457	1574.01270	-705.66821	935.60339	1413.21753	-892.81317	941.34766	1558.67957	-888.83899	942.53693	1318.84644	-729.49280	594.85706	1343.69983	-734.19696	460.82626	1344.99487	-790.29657	278.20898	1412.28735	-819.29602	65.59382	1466.28284	-863.59772	38.47720	1402.62451	-672.42981	30.84422	1653.75989	-684.55432	611.55786	1642.72021	-648.93530	458.07376	1644.62842	-785.91473	347.77652	1600.50037	-923.03400	193.98393	1543.21204	-978.45251	186.68312	1621.47742	-847.96771	74.78452	1486.52222	-684.37323	1711.38635	-3101.90234	1973.10779	1023.47400	-3140.72266	2012.59778	1022.06921			 
33	0.320	1396.91687	-697.54425	1672.29602	1503.36353	-655.90924	1678.82056	1433.72717	-804.81104	1619.25061	1547.04089	-763.67389	1624.93005	1455.69446	-824.84479	1430.34241	1462.43420	-867.49640	1139.81958	1453.41772	-681.62402	1362.51587	1449.47852	-642.85968	1205.75781	1531.26892	-883.63239	1239.64771	1294.15503	-740.28455	1392.48120	1208.00586	-752.41815	1206.49658	1206.04114	-752.44092	1054.10315	1187.91663	-693.75653	953.87457	1218.05737	-600.29645	854.94452	1187.12891	-648.86096	840.20935	1185.11951	-587.62866	782.30438	1606.03784	-743.26764	1391.54163	1701.85352	-806.59686	1191.78857	1703.46912	-805.98596	1066.60693	1736.27112	-778.68982	949.48468	1723.62122	-694.75964	834.46588	1760.18518	-741.43555	834.62299	1759.98743	-702.48840	758.07184	1355.14441	-699.48633	930.92163	1572.85193	-697.63788	936.60150	1413.03894	-885.42889	941.55823	1558.43774	-880.76300	942.91638	1318.47375	-725.07581	594.65649	1343.23193	-731.35175	460.59259	1344.75208	-788.79706	278.39178	1412.17383	-818.96442	65.68967	1466.21057	-863.39380	38.88661	1402.52588	-672.31799	30.75472	1652.40918	-671.93512	613.61304	1640.14050	-633.67279	460.28378	1642.56958	-766.97510	344.97260	1598.27893	-899.32501	187.00908	1541.14661	-954.67633	177.34494	1619.99268	-819.01031	72.05971	1485.30969	-675.55560	1711.50281	-3101.92090	1973.15088	1023.45319	-3140.69214	2012.52344	1021.98358			 
34	0.330	1395.72253	-688.72064	1672.29956	1502.29614	-647.33221	1678.77063	1432.33606	-796.22400	1619.68396	1545.77380	-755.35779	1625.31592	1454.47900	-816.94464	1430.71716	1461.57654	-859.81073	1140.19873	1452.38171	-673.64398	1362.62842	1448.34412	-635.16833	1205.85864	1530.24634	-875.86200	1240.06250	1293.05212	-732.30505	1392.67676	1206.87659	-743.28613	1206.74707	1204.91113	-741.34540	1054.19946	1186.96375	-680.37225	955.15198	1217.36060	-584.72424	858.56604	1186.60535	-632.80743	842.46545	1184.21924	-570.36719	786.36780	1605.00171	-735.30316	1391.86853	1700.76611	-799.81415	1192.41150	1702.17273	-799.95282	1067.29810	1735.02539	-774.20654	949.99512	1722.54456	-691.95819	833.76392	1758.94165	-738.39539	834.62781	1758.84546	-700.72113	757.46118	1354.27856	-692.26740	930.99023	1571.72485	-689.69952	937.45618	1412.90161	-877.97913	941.65454	1558.21667	-872.59753	943.16980	1318.08337	-720.73859	594.59399	1342.70154	-728.59387	460.44949	1344.39600	-787.12842	278.62766	1411.98352	-818.83673	66.06504	1466.21350	-863.30328	39.40508	1402.43311	-672.24054	30.64160	1651.08118	-659.35315	615.45880	1637.76294	-619.05872	462.26846	1640.57568	-748.14966	341.76358	1596.27930	-874.91785	179.44026	1539.12866	-930.06525	167.07162	1618.70166	-788.79773	69.38538	1484.24390	-666.77631	1711.52014	-3101.91162	1973.10425	1023.42365	-3140.59351	2012.68384	1022.07117			 
35	0.340	1394.66125	-679.91113	1672.39026	1501.33923	-638.74866	1678.71472	1431.04590	-787.53339	1619.95203	1544.54480	-747.07788	1625.60681	1453.29956	-808.97034	1430.91833	1460.73767	-852.08380	1140.60339	1451.37988	-665.74335	1362.69019	1447.33459	-627.36432	1205.94250	1529.22229	-868.02771	1240.42590	1292.03040	-724.26544	1392.84338	1205.81470	-734.15070	1206.90735	1203.89880	-730.01965	1054.34863	1186.00671	-667.10083	956.42413	1215.97302	-568.77460	862.38635	1186.08557	-616.96295	844.86328	1183.27258	-553.05469	790.21960	1603.92993	-727.50525	1392.14587	1699.71387	-792.98962	1193.00464	1701.02881	-793.85638	1067.97083	1733.91064	-769.61346	950.44043	1721.69238	-688.91223	833.13666	1757.99316	-735.38171	834.64392	1757.81250	-698.84113	756.80115	1353.35669	-684.98047	930.99451	1570.75208	-681.68896	938.13153	1412.75476	-870.47601	941.71857	1558.05566	-864.67383	943.48431	1317.69592	-716.48145	594.47290	1342.11279	-725.92700	460.30658	1344.05957	-785.54291	278.86633	1411.79541	-818.64703	66.44444	1466.12341	-863.52197	39.92353	1402.29688	-672.19427	30.57149	1649.86426	-647.35657	617.20825	1635.54346	-604.95569	464.16782	1638.59326	-729.50818	338.22134	1594.21094	-850.18616	171.54372	1537.41309	-904.49225	155.62675	1616.79956	-758.06628	66.45341	1483.20093	-658.05109	1711.50073	-3101.93286	1973.12170	1023.41003	-3140.83423	2012.58044	1022.11896			 
